<?xml version="1.0" encoding="utf-8"?><!-- Uploaded to: SVG Repo, www.svgrepo.com, Generator: SVG Repo Mixer Tools -->
<svg version="1.1" id="designs" xmlns="http://www.w3.org/2000/svg" xmlns:xlink="http://www.w3.org/1999/xlink" 
	 width="800px" height="800px" viewBox="0 0 32 32" xml:space="preserve">
<style type="text/css">
	.sketchy_een{fill:#111918;}
</style>
<path class="sketchy_een" d="M27.68,8.103c-0.05-0.311-0.127-0.638-0.37-0.961c-0.093-0.124-0.192-0.256-0.306-0.359
	c-0.248-0.231-0.546-0.353-0.86-0.353c-0.086,0-0.175,0.009-0.265,0.027c-0.236,0.047-0.475,0.146-0.729,0.305
	c-0.194,0.121-0.395,0.246-0.544,0.429c-0.2,0.244-0.389,0.502-0.561,0.77c-0.271,0.432-0.51,0.886-0.749,1.339l-0.234,0.439
	c-0.12,0.224-0.236,0.451-0.351,0.678l-0.537,1.022c0.012-0.155,0.026-0.31,0.045-0.464l0.193-1.387
	c0.04-0.276,0.087-0.552,0.135-0.829c0.082-0.475,0.164-0.951,0.203-1.43c0.027-0.336,0.029-0.675,0.031-1.01
	c0.005-0.377-0.017-0.702-0.07-1.023c-0.055-0.327-0.159-0.649-0.316-0.984c-0.146-0.316-0.325-0.557-0.529-0.714
	c-0.172-0.134-0.28-0.204-0.51-0.289c-0.15-0.057-0.317-0.066-0.526-0.076c-0.319,0-0.615,0.111-0.861,0.219
	c-0.257,0.111-0.469,0.307-0.646,0.481c-0.232,0.225-0.519,0.531-0.698,0.903c-0.154,0.327-0.306,0.661-0.427,1.001
	c-0.08,0.226-0.144,0.456-0.208,0.687L17.95,6.679c0-0.088,0.002-0.566,0.002-0.566c0.003-0.615,0.006-1.25-0.049-1.873
	c-0.034-0.402-0.092-0.803-0.164-1.202c-0.061-0.341-0.133-0.671-0.337-0.955c-0.272-0.382-0.566-0.654-0.898-0.832
	c-0.306-0.163-0.634-0.25-1.022-0.25c-0.004,0-0.007,0-0.011,0c-0.245,0.01-0.524,0.02-0.77,0.105
	c-0.219,0.077-0.427,0.191-0.661,0.319c-0.26,0.146-0.427,0.356-0.569,0.56c-0.107,0.151-0.171,0.323-0.233,0.489l-0.046,0.122
	c-0.08,0.205-0.106,0.418-0.131,0.624l-0.019,0.146c-0.04,0.284-0.081,0.568-0.097,0.854c-0.015,0.255-0.019,0.51-0.022,0.764
	L12.92,5.21l-0.036,1.08c-0.005,0.174-0.003,0.349-0.002,0.523c0.001,0.161,0.002,0.322-0.001,0.482l-0.015,0.444
	c-0.009,0.214-0.017,0.428-0.019,0.643c-0.001,0.126-0.001,0.252,0,0.378c-0.012-0.042-0.024-0.084-0.036-0.126
	c-0.063-0.223-0.118-0.448-0.175-0.674l-0.089-0.354c-0.083-0.324-0.199-0.628-0.324-0.936l-0.134-0.341
	c-0.101-0.259-0.201-0.517-0.315-0.771c-0.05-0.111-0.118-0.214-0.186-0.316l-0.061-0.094c-0.129-0.198-0.276-0.385-0.425-0.567
	c-0.206-0.253-0.472-0.429-0.862-0.57c-0.11-0.04-0.229-0.059-0.364-0.059c-0.219,0-0.438,0.051-0.649,0.1
	C9.14,4.07,9.056,4.09,8.975,4.105c-0.364,0.066-0.651,0.277-0.835,0.43C7.9,4.731,7.794,5.021,7.709,5.253
	c-0.096,0.259-0.07,0.556-0.036,0.839c0.038,0.291,0.094,0.671,0.192,1.031C7.918,7.319,7.95,7.517,7.979,7.717
	c0.025,0.172,0.057,0.343,0.09,0.515L8.127,8.55c0.026,0.162,0.066,0.319,0.106,0.477c0.025,0.098,0.05,0.196,0.071,0.295
	c0.041,0.188,0.089,0.374,0.138,0.56l0.103,0.408L8.6,10.523c0.065,0.282,0.13,0.563,0.211,0.84c0.13,0.447,0.244,0.899,0.359,1.351
	l0.203,0.789c0,0,0.382,1.427,0.474,1.784l-0.189-0.204c-0.22-0.239-0.439-0.473-0.673-0.699c-0.413-0.393-0.888-0.708-1.348-1.012
	c-0.334-0.221-0.763-0.342-1.208-0.342l-0.151,0.005c-0.526,0.036-0.934,0.196-1.247,0.489L4.92,13.617
	c-0.059,0.048-0.118,0.095-0.17,0.148c-0.163,0.165-0.281,0.33-0.357,0.51c-0.05,0.115-0.098,0.223-0.122,0.355
	c-0.053,0.297-0.057,0.528-0.015,0.774c0.018,0.112,0.059,0.214,0.128,0.389c0.13,0.339,0.303,0.685,0.531,1.058
	c0.138,0.223,0.275,0.446,0.406,0.673c0.107,0.187,0.222,0.367,0.337,0.549l0.089,0.141c0.102,0.16,0.209,0.316,0.316,0.472
	c0.106,0.155,0.211,0.31,0.312,0.467c0.131,0.206,0.282,0.395,0.487,0.652l0.68,0.899l0.093,0.121
	c0.31,0.401,0.621,0.797,0.96,1.175c0.359,0.397,0.727,0.79,1.099,1.175l0.286,0.298c0.361,0.377,0.724,0.757,1.107,1.111
	c-0.211,0.181-0.322,0.42-0.305,0.668c0.034,0.484,0.063,0.965,0.084,1.449c0.017,0.41,0.015,0.818,0.012,1.228
	c-0.002,0.468-0.002,0.933,0.011,1.399c0.008,0.26,0.012,0.518,0,0.777c-0.011,0.22,0.073,0.435,0.235,0.605
	c0.174,0.183,0.412,0.288,0.653,0.288c0.123,0,0.25-0.032,0.336-0.083c0.384,0.033,0.771,0.042,1.159,0.042l3.559-0.028
	c0.596-0.007,1.191-0.014,1.785-0.051c0.694-0.044,1.386-0.078,2.078-0.086c0.105,0,0.207,0.006,0.366,0.017
	c0.223,0,0.441-0.124,0.588-0.326c0.166-0.159,0.254-0.372,0.242-0.584c-0.012-0.205-0.01-0.41-0.009-0.617
	c0.001-0.162,0.003-0.325-0.003-0.487l-0.015-0.39c-0.009-0.225-0.018-0.449-0.022-0.675c-0.009-0.412-0.02-0.822-0.042-1.234
	c-0.011-0.219-0.012-0.438-0.013-0.657c-0.001-0.251-0.002-0.501-0.012-0.751c0.016-0.052,0.032-0.111,0.032-0.175
	c0-0.177-0.069-0.362-0.153-0.434c0.109-0.096,0.218-0.192,0.317-0.299c0.111-0.119,0.209-0.253,0.305-0.386l0.088-0.119
	c0.184-0.244,0.345-0.501,0.476-0.762c0.327-0.645,0.624-1.344,0.908-2.138l0.186-0.509c0.184-0.502,0.369-1.005,0.522-1.517
	c0.163-0.545,0.347-1.077,0.551-1.609l0.207-0.551c0.115-0.308,0.229-0.617,0.352-0.92l0.108-0.242
	c0.121-0.27,0.242-0.541,0.357-0.813c0.119-0.277,0.232-0.557,0.345-0.838l0.123-0.307l0.154-0.358
	c0.532-1.228,1.083-2.498,1.12-3.859C27.78,8.909,27.752,8.552,27.68,8.103z M19.803,29.238c-0.344,0.008-0.689,0.027-1.031,0.052
	l-0.138,0.01c-0.291,0.021-0.582,0.043-0.874,0.047l-1.821-0.014c-0.504-0.002-1.008-0.005-1.51-0.023
	c-0.352-0.013-0.703-0.027-1.053-0.047c-0.231-0.013-0.461-0.039-0.748-0.074c-0.007-0.387-0.007-0.777-0.007-1.221v-0.204
	c0-0.338-0.001-0.674,0.006-1.014c0.003-0.225-0.001-0.45-0.005-0.674l-0.003-0.162c0.485-0.045,0.973-0.087,1.51-0.104
	c0.752-0.024,1.504-0.048,2.256-0.053l0.614-0.001c0.52,0,2.624,0.015,2.624,0.015c0.168,0,0.338-0.005,0.506-0.01l0.008,0
	l0.009,0.09c0.019,0.207,0.039,0.414,0.049,0.621c0.019,0.42,0.023,0.843,0.019,1.264c-0.002,0.342,0.006,0.683,0.022,1.026
	c0.005,0.107,0.01,0.462,0.01,0.462L19.803,29.238z M26.01,9.831c-0.104,0.646-0.329,1.283-0.548,1.901
	c-0.099,0.286-0.211,0.566-0.322,0.847l-0.221,0.568c-0.067,0.176-0.134,0.351-0.206,0.525l-0.167,0.41
	c-0.227,0.558-0.454,1.115-0.661,1.684l-0.17,0.465c-0.189,0.519-0.378,1.038-0.558,1.56c-0.063,0.18-0.116,0.364-0.171,0.548
	L22.9,18.631c-0.068,0.221-0.146,0.439-0.224,0.657l-0.164,0.466c-0.146,0.422-0.292,0.844-0.457,1.253
	c-0.174,0.384-0.352,0.766-0.558,1.136c-0.174,0.312-0.387,0.607-0.551,0.826c-0.113,0.139-0.241,0.255-0.372,0.375
	c0,0-0.316,0.29-0.392,0.356c-0.048,0.032-0.097,0.06-0.226,0.113c-0.157,0.057-0.319,0.117-0.459,0.207
	c-0.073,0.046-0.172,0.129-0.172,0.129c-0.835,0.023-1.606,0.032-2.444,0.034c-0.762,0.002-1.526,0.008-2.291,0.027
	c-0.366,0.01-0.872,0.012-1.249,0.014c-0.068-0.089-0.139-0.169-0.227-0.22c-0.348-0.198-0.699-0.43-1.099-0.726
	c-0.244-0.203-0.475-0.424-0.703-0.647c-0.249-0.243-0.501-0.489-0.772-0.782c-0.471-0.51-0.959-1.037-1.396-1.587
	c-0.565-0.748-1.138-1.568-1.805-2.581c-0.255-0.387-0.492-0.785-0.724-1.186l-0.176-0.292c-0.137-0.226-0.276-0.454-0.394-0.689
	c-0.046-0.09-0.09-0.183-0.129-0.267c-0.02-0.057-0.037-0.113-0.047-0.153c-0.001-0.045,0-0.091,0.036-0.132l0.198-0.155
	c0.032-0.021,0.065-0.04,0.083-0.051c0.04-0.013,0.081-0.021,0.115-0.027c0.049-0.004,0.097-0.006,0.146-0.006
	c0.048,0,0.096,0.002,0.131,0.004c0.045,0.009,0.089,0.019,0.115,0.026c0.114,0.061,0.223,0.132,0.33,0.204l0.12,0.079
	c0.144,0.092,0.286,0.188,0.42,0.286c0.282,0.228,0.536,0.491,0.789,0.752l0.223,0.228c0.141,0.144,0.282,0.287,0.416,0.441
	c0.054,0.061,0.257,0.311,0.257,0.311c0.128,0.152,0.251,0.307,0.374,0.462c0.136,0.17,0.272,0.341,0.413,0.507
	c0.112,0.13,0.229,0.256,0.348,0.38c0.125,0.132,0.25,0.265,0.363,0.398l0.164,0.25c0.115,0.374,0.455,0.625,0.918,0.628
	c0.149,0,0.281-0.033,0.391-0.098c0.183-0.108,0.319-0.286,0.381-0.58c0.016-0.069,0.017-0.134,0.012-0.277
	c0-0.043,0-0.091-0.017-0.144c-0.14-0.432-0.288-0.861-0.438-1.291l-0.119-0.332c-0.082-0.225-0.164-0.45-0.236-0.68
	c-0.221-0.697-0.401-1.419-0.593-2.189l-0.134-0.54c-0.14-0.567-0.28-1.133-0.425-1.697l-0.042-0.163
	c-0.166-0.642-0.331-1.283-0.47-1.931c-0.07-0.33-0.147-0.657-0.225-0.985C9.828,8.428,9.747,8.082,9.661,7.67L9.505,6.927
	C9.48,6.807,9.449,6.688,9.418,6.569C9.371,6.39,9.324,6.212,9.299,6.029C9.285,5.92,9.273,5.811,9.286,5.69
	c0.151-0.048,0.312-0.077,0.541-0.093C9.887,5.654,9.94,5.718,9.99,5.776c0.192,0.257,0.328,0.479,0.427,0.694
	c0.22,0.537,0.445,1.118,0.606,1.72c0.091,0.339,0.461,1.653,0.547,1.973c0.089,0.332,0.184,0.662,0.335,1.079
	c0.094,0.257,0.186,0.511,0.272,0.77l0.098,0.296c0.123,0.374,0.247,0.747,0.388,1.117c0.068,0.175,0.161,0.354,0.373,0.481
	c0.124,0.073,0.268,0.111,0.416,0.111c0.073,0,0.146-0.01,0.292-0.066c0.345-0.087,0.584-0.385,0.607-0.758
	c0.022-0.326,0.022-0.649,0.022-0.977c-0.001-0.165,0.002-0.331,0.005-0.497l0.006-0.353c0.003-0.404,0.017-0.809,0.03-1.212
	c0.01-0.302,0.02-0.603,0.026-0.904c0.013-0.724,0.036-1.447,0.08-2.167c0.013-0.207,0.015-0.415,0.016-0.623
	c0.002-0.154,0.003-0.308,0.009-0.462c0.013-0.349,0.036-0.7,0.063-1.05l0.016-0.293c0.006-0.146,0.013-0.291,0.034-0.478
	c0.056-0.379,0.113-0.771,0.237-1.118c0.028-0.056,0.06-0.111,0.09-0.158c0.068-0.049,0.137-0.099,0.188-0.131
	c0.04-0.012,0.079-0.021,0.11-0.027c0.073-0.007,0.146-0.012,0.27-0.013c0.046,0.011,0.092,0.025,0.122,0.034
	c0.047,0.026,0.092,0.055,0.13,0.081c0.066,0.056,0.127,0.115,0.217,0.23c0.043,0.138,0.069,0.281,0.105,0.473
	c0.033,0.172,0.061,0.346,0.087,0.516c0.084,0.747,0.095,1.498,0.095,2.07c0,0.74,0.014,1.479,0.032,2.217l0.007,0.245
	c0.017,0.616,0.034,1.233,0.076,1.849c0.042,0.642,0.078,1.284,0.101,1.928l0.004,0.166c0.003,0.204,0.007,0.405,0.045,0.611
	c0.054,0.299,0.314,0.569,0.633,0.658c0.074,0.02,0.155,0.03,0.235,0.03c0.086,0,0.169-0.012,0.241-0.036
	c0.094-0.032,0.411-0.155,0.523-0.414c0.054-0.126,0.098-0.234,0.121-0.397l0.023-0.18c0.083-0.592,0.198-1.181,0.318-1.766
	c0.061-0.295,0.13-0.587,0.2-0.879c0.062-0.265,0.125-0.53,0.181-0.797c0.059-0.284,0.112-0.57,0.162-0.857
	c0.047-0.269,0.113-0.534,0.203-0.893c0.108-0.438,0.259-1.01,0.472-1.546c0.096-0.217,0.214-0.471,0.364-0.694
	c0.105-0.122,0.218-0.238,0.333-0.336c0.043-0.029,0.086-0.055,0.117-0.073c0.034-0.012,0.069-0.022,0.082-0.038l0.009-0.004
	c0,0-0.003-0.014-0.003-0.016c0.055,0.084,0.102,0.174,0.142,0.256c0.071,0.194,0.121,0.395,0.154,0.59
	c0.019,0.201,0.022,0.405,0.025,0.608l0.004,0.177c0.006,0.327-0.002,0.653-0.031,0.98c-0.038,0.414-0.093,0.828-0.147,1.241
	c-0.035,0.266-0.162,1.305-0.162,1.305c-0.065,0.537-0.13,1.073-0.171,1.611l-0.046,0.636c-0.033,0.486-0.066,0.972-0.133,1.517
	l-0.019,0.122c-0.032,0.175-0.048,0.382,0.081,0.6c0.05,0.088,0.117,0.164,0.165,0.178c0.064,0.2,0.196,0.367,0.37,0.469
	c0.128,0.075,0.275,0.114,0.425,0.114c0.076,0,0.149-0.01,0.221-0.029c0.199-0.054,0.357-0.175,0.5-0.38
	c0.181-0.262,0.355-0.53,0.501-0.812c0.133-0.258,0.253-0.521,0.395-0.831c0.199-0.439,0.431-0.86,0.663-1.28l0.448-0.831
	c0.191-0.358,0.381-0.717,0.582-1.069l0.198-0.35c0.208-0.368,0.422-0.749,0.674-1.089c0.078-0.094,0.158-0.181,0.239-0.255
	c0.028-0.02,0.057-0.039,0.085-0.057c0.028,0.116,0.049,0.234,0.068,0.348c0.021,0.192,0.034,0.383,0.034,0.578
	C26.052,9.451,26.032,9.644,26.01,9.831z"/>
</svg>